<svg width="400" height="420" viewBox="0 0 400 420" fill="none" xmlns="http://www.w3.org/2000/svg">
<g clip-path="url(#clip0_3_14)">
<path d="M262 10C259.5 10.3 256 11.5 254.3 12.8C252.6 14 246.3 21.4 240.4 29.3C228.7 44.8 181.5 106.3 152.1 144.5C141.9 157.7 132.1 170.5 130.2 173C128.3 175.5 126.4 177.6 125.9 177.8C125.4 178 125 142.7 125 94.6V11H91.5H58V105.7V200.5L72.6 207.4C96.8 219 113.9 231.2 136 252.7L147.6 263.9L160.5 247.2C167.5 238 201 193.6 234.8 148.5C268.6 103.4 305.2 54.8 316 40.5C326.8 26.2 336.4 13.4 337.3 12L338.9 9.5H302.7C282.8 9.5 264.5 9.7 262 10Z" fill="white"/>
<path d="M44 225C41.6 231.1 39.9 236.2 40.1 236.3C40.3 236.5 44.8 238.1 50 239.9C100.9 257.4 144.7 292.4 168.4 334.5C179.8 354.7 187.1 376 192.4 404.5C194.6 416.2 194.8 416.9 194.9 411.8C195.1 402.5 191.2 375.5 187.9 362C172.7 301 134.2 254.1 75.5 225.5C65.3 220.5 50 214 48.5 214C48.4 214 46.4 219 44 225Z" fill="white"/>
<path d="M331.5 222.4C310.8 230.8 281.7 248.3 268.2 260.6C264.7 263.7 261.5 265.9 261.1 265.4C260.7 264.9 252.3 254.6 242.5 242.5C232.7 230.4 224.5 220.3 224.2 220C224 219.7 222.9 220.6 221.9 222C220.9 223.4 211.3 236.4 200.6 250.8L181.1 277.2L198.8 298.3C208.6 310 217.1 320.3 217.8 321.2C218.9 322.6 218.3 324.9 213.6 336.7C205.2 357.8 200.5 378.2 199.5 398.5L198.9 408.5L201.9 394.8C213.4 341.6 241.6 300.1 286.9 269.9C299.3 261.7 325 248.6 338 243.9C343 242.2 347.3 240.4 347.5 240C347.9 239.4 340.7 220.3 339.7 219.4C339.6 219.3 335.9 220.6 331.5 222.4Z" fill="white"/>
<path d="M25.5 274.1C24 279.6 23 284.3 23.2 284.6C23.5 284.9 27.5 286 32.1 287.1C59.3 293.6 90.6 306.4 111.3 319.6C142.7 339.7 169.8 372 183.5 405.7C189.2 419.7 189.2 417.2 183.4 400.1C178.1 384.2 168.4 364 160.4 352C133.2 311.3 88.5 280.3 36.9 266.5L28.2 264.2L25.5 274.1Z" fill="white"/>
<path d="M347 268.4C316.9 277.8 286.4 294.6 265 313.3C240.4 334.9 221.1 364.6 210 397.8C205.4 411.6 205 416.3 209.4 404.9C231.9 347.1 280.7 307.3 352.4 288.5C359.4 286.6 365.4 285 365.6 284.8C365.8 284.6 364.7 280 363.2 274.7C361.3 267.8 360.1 265 359 265C358.2 265.1 352.8 266.6 347 268.4Z" fill="white"/>
<path d="M13.1 318.7C12.4 323.5 11.6 328.3 11.4 329.2C11 330.7 11.5 331 14.4 331C21.1 331 41.6 334.1 54.9 337.1C97.4 346.8 128.4 363.2 155.6 390.4C162.2 397.1 170.5 406.4 173.9 411.2C177.4 416.1 180.4 420 180.6 420C182.3 420 170.5 401 161.4 389C129.6 347.3 80.3 320.2 18.4 310.5L14.3 309.9L13.1 318.7Z" fill="white"/>
<path d="M359 312.6C325.7 319.5 292.4 333.6 269 350.8C251.8 363.5 236.4 379.6 223.8 398.4C218.4 406.6 212 418 212 419.6C212 420 215.4 415.5 219.6 409.6C223.7 403.7 230.1 395.8 233.7 391.9C263.8 360 310.7 338.2 362.5 332C367.5 331.4 372.9 330.7 374.5 330.5L377.6 330L376.1 320C374.4 308.3 376 309 359 312.6Z" fill="white"/>
<path d="M9 361.7C9 364.9 9.30001 369.1 9.60001 371.1L10.2 374.7L27.5 374.2C86.7 372.6 135.2 389.2 170.9 423.4C177.4 429.6 177.9 429.9 175 426C173.2 423.5 166.4 416.3 160.1 410C138.6 388.6 111.9 373.4 80.5 364.6C62.9 359.7 36.4 356 18.4 356H9V361.7Z" fill="white"/>
<path d="M352 357.1C298.5 361.9 252.7 384.8 219.8 423.3L214.5 429.5L223.2 421.6C251.5 395.9 283 382 327 375.9C332.7 375.1 345.5 374.6 358.8 374.6H381V365.3V356L370.8 356.1C365.1 356.2 356.7 356.6 352 357.1Z" fill="white"/>
<path d="M320.4 394.1C287.5 396.5 257.3 406.9 232.7 424.5C219.2 434.3 214.7 438.2 223.8 432.4C232.8 426.8 244.5 421.2 256.3 417.1C267.4 413.2 269 413.2 271.2 417L272.9 420H312.7C334.6 420 353.5 419.7 354.8 419.4C356.5 418.9 357 418 357 415.4C357 411.3 357.8 411.2 367.2 413.9C373.3 415.7 373.9 415.7 374.3 414.2C374.6 413.2 375.7 409.3 376.8 405.3L378.8 398.2L369.8 396.5C360.9 394.9 340.4 392.9 334.5 393.2C332.9 393.2 326.5 393.6 320.4 394.1Z" fill="white"/>
<path d="M32 395C29 395.4 23.3 396.3 19.4 396.9L12.2 398.1L14.8 406.8C16.2 411.6 17.4 415.6 17.4 415.7C17.5 415.8 22.5 414.6 28.5 413C39.8 410.1 59.2 407.4 61 408.5C61.6 408.8 62 409.7 62 410.5C62 411.6 67.5 411.9 92.3 412.2L122.5 412.6L133.7 416.3C139.8 418.4 151.4 423.3 159.4 427.3C167.3 431.3 173.6 434.2 173.4 433.8C172.4 432.2 156.8 421.9 147.5 416.7C128.4 406 106.1 398.7 83.2 395.5C71.5 393.9 42.4 393.6 32 395Z" fill="white"/>
</g>
<defs>
<clipPath id="clip0_3_14">
<rect width="400" height="420" fill="white"/>
</clipPath>
</defs>
</svg>
